<?xml version="1.0" standalone="no"?>
<!DOCTYPE svg PUBLIC "-//W3C//DTD SVG 20010904//EN"
 "http://www.w3.org/TR/2001/REC-SVG-20010904/DTD/svg10.dtd">
<svg version="1.0" xmlns="http://www.w3.org/2000/svg"
 width="1075.000000pt" height="1280.000000pt" viewBox="0 0 1075.000000 1280.000000"
 preserveAspectRatio="xMidYMid meet">
<g transform="translate(0.000000,1280.000000) scale(0.100000,-0.100000)"
fill="#000000" stroke="none">
<path d="M9185 12790 c-22 -4 -74 -13 -115 -20 -293 -47 -591 -219 -785 -451
-210 -251 -315 -538 -315 -859 0 -577 365 -1083 911 -1264 339 -112 710 -83
1029 80 370 189 632 546 704 959 20 115 20 322 1 445 -83 507 -473 935 -971
1065 -170 44 -370 64 -459 45z"/>
<path d="M1040 12029 c-447 -49 -839 -370 -974 -797 -31 -98 -57 -230 -63
-323 -9 -127 54 -404 123 -541 202 -400 601 -648 1044 -648 712 0 1251 628
1145 1333 -68 453 -416 837 -855 945 -158 39 -271 48 -420 31z"/>
<path d="M5098 10300 c-479 -121 -758 -622 -606 -1090 74 -229 240 -414 462
-515 101 -46 185 -66 312 -72 403 -20 759 244 865 642 29 112 30 288 1 405
-73 299 -286 524 -587 620 -102 33 -337 38 -447 10z"/>
<path d="M9220 9464 c-413 -38 -876 -184 -1282 -405 -168 -92 -278 -166 -548
-371 -685 -517 -1210 -778 -1775 -883 -496 -92 -926 -35 -1437 189 -21 9 -38
14 -38 12 0 -3 42 -31 93 -62 385 -239 887 -359 1354 -325 281 21 510 69 798
165 393 133 742 312 1235 636 284 186 363 231 562 319 660 292 1357 350 1728
144 90 -50 189 -152 228 -234 58 -121 67 -174 67 -384 0 -217 -16 -341 -71
-560 -74 -295 -149 -497 -424 -1140 -192 -450 -280 -678 -369 -960 -171 -545
-294 -1054 -386 -1605 -69 -413 -91 -639 -125 -1305 -11 -214 -25 -453 -30
-530 -53 -721 -157 -1177 -324 -1429 -64 -96 -179 -209 -229 -225 -116 -39
-248 104 -357 385 -66 171 -125 409 -200 807 -115 612 -291 1167 -492 1547
-121 230 -254 416 -422 589 -156 160 -283 253 -456 335 -458 216 -947 116
-1435 -295 -85 -72 -194 -179 -182 -179 4 0 35 22 70 49 144 113 401 256 565
315 183 65 420 86 587 51 206 -43 365 -135 550 -320 127 -127 200 -219 286
-360 250 -411 420 -998 530 -1830 88 -666 180 -991 354 -1255 44 -66 157 -185
211 -221 93 -64 278 -129 364 -129 63 0 217 47 300 92 232 124 444 386 571
705 159 400 244 912 304 1828 54 826 99 1176 231 1775 145 660 307 1197 515
1709 287 707 333 825 393 1003 95 284 158 548 185 778 7 52 16 131 22 175 21
151 -2 403 -52 585 -26 93 -94 240 -153 328 -53 80 -187 212 -275 272 -138 92
-324 164 -516 196 -87 15 -430 26 -525 18z"/>
<path d="M1617 8830 c-279 -32 -526 -175 -703 -409 -79 -104 -184 -313 -219
-436 -185 -645 -90 -1342 286 -2110 43 -88 182 -342 310 -565 614 -1072 860
-1592 1024 -2156 82 -284 123 -519 205 -1174 79 -633 124 -880 210 -1140 98
-299 241 -521 413 -639 266 -182 616 -173 891 23 317 226 581 770 710 1466 28
153 48 284 106 690 60 428 105 604 203 795 118 227 315 350 531 331 136 -12
303 -104 453 -251 46 -44 83 -77 83 -74 0 20 -133 180 -208 249 -214 201 -468
244 -717 121 -168 -83 -294 -225 -405 -457 -93 -193 -141 -358 -290 -1004
-103 -447 -209 -765 -340 -1024 -209 -413 -431 -591 -655 -527 -73 21 -158
110 -212 221 -109 226 -164 519 -228 1205 -81 879 -125 1130 -282 1609 -110
337 -233 626 -443 1041 -148 292 -248 472 -546 985 -247 425 -368 657 -442
845 -134 343 -189 582 -199 877 -20 567 169 950 501 1018 190 39 402 -6 668
-140 213 -107 344 -196 773 -524 597 -457 894 -621 1310 -721 616 -149 1336
-86 1840 160 120 59 305 177 345 220 22 24 16 22 -49 -15 -197 -112 -478 -200
-746 -235 -517 -67 -1104 15 -1530 215 -273 127 -466 268 -910 660 -291 258
-511 436 -665 538 -135 90 -401 227 -515 264 -178 59 -399 86 -558 68z"/>
</g>
</svg>
