<?xml version="1.0" standalone="no"?>
<!DOCTYPE svg PUBLIC "-//W3C//DTD SVG 20010904//EN"
 "http://www.w3.org/TR/2001/REC-SVG-20010904/DTD/svg10.dtd">
<svg version="1.0" xmlns="http://www.w3.org/2000/svg"
 width="1707.000000pt" height="1707.000000pt" viewBox="0 0 1707.000000 1707.000000"
 preserveAspectRatio="xMidYMid meet">
<metadata>
Created by potrace 1.14, written by Peter Selinger 2001-2017
</metadata>
<g transform="translate(0.000000,1707.000000) scale(0.100000,-0.100000)"
fill="#000000" stroke="none">
<path d="M13605 17054 c-38 -6 -90 -14 -115 -18 -88 -13 -256 -59 -344 -93
-388 -151 -706 -418 -908 -763 -161 -275 -244 -579 -242 -890 1 -185 17 -310
63 -482 98 -369 334 -715 651 -952 100 -74 257 -162 390 -219 35 -14 166 -59
185 -63 6 -1 37 -9 70 -17 185 -49 460 -62 650 -32 17 3 48 7 70 10 134 20
346 90 498 166 73 37 244 142 257 158 3 3 23 19 44 35 116 87 287 275 380 420
59 91 142 256 182 361 36 95 80 272 92 370 9 82 8 451 -2 495 -3 13 -8 42 -11
65 -10 67 -55 225 -91 318 -129 330 -367 626 -669 834 -204 140 -522 259 -770
287 -27 4 -68 9 -89 12 -70 11 -219 10 -291 -2z"/>
<path d="M2897 16054 c-1 -1 -42 -5 -91 -9 -49 -4 -98 -9 -110 -11 -159 -31
-145 -27 -255 -63 -451 -149 -829 -526 -975 -973 -34 -102 -68 -247 -81 -343
-20 -138 -6 -320 37 -480 5 -22 12 -49 14 -60 7 -38 66 -210 90 -262 94 -205
283 -436 472 -578 358 -269 803 -368 1247 -280 380 76 741 316 956 636 66 97
66 98 107 179 189 379 217 809 77 1210 -125 362 -440 713 -789 879 -83 40
-243 97 -301 107 -16 3 -46 9 -65 14 -19 5 -51 11 -70 14 -50 9 -258 24 -263
20z"/>
<path d="M8300 13757 c-3 -3 -27 -7 -55 -9 -249 -24 -538 -201 -715 -439 -95
-127 -184 -325 -205 -454 -19 -115 -22 -159 -19 -260 7 -285 117 -545 318
-750 156 -159 337 -265 541 -317 109 -27 379 -34 480 -12 39 9 79 17 90 20 82
16 223 80 330 150 74 49 200 162 254 227 96 120 203 334 226 452 27 137 33
348 14 451 -5 27 -11 60 -14 74 -23 127 -135 356 -225 460 -123 142 -247 237
-403 310 -115 53 -169 70 -269 84 -85 12 -339 21 -348 13z"/>
<path d="M13697 12624 c-1 -1 -33 -4 -72 -8 -91 -9 -133 -13 -170 -20 -16 -3
-47 -8 -69 -11 -295 -47 -740 -180 -1022 -305 -27 -12 -76 -33 -109 -48 -77
-34 -339 -168 -387 -198 -21 -13 -40 -24 -44 -24 -17 0 -304 -200 -579 -404
-110 -82 -222 -165 -250 -186 -27 -20 -79 -57 -115 -81 -36 -24 -67 -46 -70
-49 -6 -6 -206 -141 -231 -155 -10 -5 -89 -53 -176 -106 -203 -123 -352 -204
-547 -295 -349 -163 -761 -292 -1081 -339 -22 -3 -53 -7 -70 -10 -138 -21
-264 -29 -450 -29 -163 1 -263 8 -400 29 -16 3 -48 7 -70 11 -194 29 -476 113
-735 219 -164 67 -166 68 -155 57 6 -6 51 -36 100 -67 129 -80 296 -164 480
-240 174 -72 501 -156 701 -180 33 -4 68 -9 78 -11 48 -9 212 -17 336 -18 128
0 359 11 384 19 6 2 38 6 71 9 33 3 74 8 90 11 17 3 80 15 140 25 61 11 171
36 245 55 74 20 143 38 153 40 65 15 454 151 542 189 17 8 68 30 115 51 221
96 530 259 763 400 54 33 106 65 115 70 10 6 109 69 220 140 319 205 361 232
462 292 275 164 690 334 1042 427 120 32 302 72 368 81 243 34 294 38 480 39
254 1 342 -7 514 -50 385 -96 618 -332 671 -679 8 -51 8 -406 0 -510 -7 -100
-29 -230 -70 -425 -4 -21 -53 -203 -72 -270 -20 -73 -112 -347 -128 -385 -7
-16 -50 -124 -95 -240 -45 -115 -90 -228 -100 -250 -10 -22 -55 -128 -100
-235 -45 -107 -87 -208 -95 -225 -7 -16 -36 -86 -65 -155 -29 -69 -58 -138
-65 -155 -52 -115 -199 -495 -267 -690 -147 -423 -343 -1127 -438 -1569 -12
-54 -23 -106 -25 -115 -21 -96 -48 -221 -51 -241 -3 -14 -9 -48 -15 -76 -5
-28 -12 -64 -14 -80 -3 -16 -9 -49 -15 -74 -10 -47 -49 -278 -64 -377 -3 -16
-8 -48 -12 -73 -4 -25 -8 -54 -9 -65 -2 -11 -8 -58 -15 -105 -18 -132 -20
-142 -25 -195 -3 -27 -7 -66 -10 -85 -2 -19 -7 -69 -10 -110 -4 -41 -8 -91
-10 -110 -10 -103 -25 -324 -40 -595 -3 -55 -7 -136 -10 -180 -2 -44 -7 -127
-10 -185 -3 -58 -8 -143 -10 -190 -3 -47 -7 -130 -10 -185 -3 -55 -7 -127 -10
-160 -12 -177 -16 -234 -21 -275 -2 -25 -6 -67 -9 -95 -34 -391 -103 -798
-189 -1115 -37 -136 -136 -367 -202 -472 -84 -133 -211 -265 -300 -313 -205
-109 -450 244 -612 880 -36 141 -96 405 -109 475 -64 370 -178 869 -269 1180
-229 775 -492 1310 -859 1745 -47 55 -244 256 -297 302 -315 275 -709 435
-1073 436 -71 1 -214 -9 -250 -17 -11 -3 -53 -12 -93 -20 -278 -60 -628 -242
-898 -468 -118 -99 -295 -268 -280 -268 5 0 47 29 95 63 47 35 106 78 131 94
224 151 600 333 740 359 14 3 39 9 55 14 17 5 50 12 75 15 25 3 72 10 105 14
89 14 348 6 432 -13 275 -60 482 -184 739 -442 218 -219 343 -396 493 -699 99
-201 146 -317 236 -580 43 -124 138 -469 151 -544 3 -14 9 -42 14 -61 20 -76
86 -410 105 -530 3 -19 7 -46 10 -60 2 -14 7 -43 10 -65 3 -22 10 -69 16 -105
6 -36 12 -80 15 -99 2 -19 6 -46 9 -60 2 -14 7 -48 10 -76 5 -42 36 -250 60
-410 84 -544 204 -939 373 -1220 41 -68 36 -60 100 -140 119 -147 220 -231
352 -292 169 -79 324 -113 426 -94 156 28 348 111 470 202 247 184 470 485
609 819 72 174 195 590 219 740 3 19 12 67 20 105 8 39 17 88 20 110 3 22 7
49 10 60 3 19 13 80 21 135 2 14 9 63 15 110 6 47 13 96 15 110 2 14 7 54 10
90 4 36 9 72 10 80 1 8 6 51 10 95 4 44 8 94 10 110 2 17 7 59 10 95 3 36 7
91 10 123 3 31 7 83 10 115 2 31 7 89 10 127 3 39 8 99 10 135 12 194 16 250
20 300 3 30 7 96 10 145 3 50 7 110 10 135 2 25 7 77 10 115 13 164 17 200 36
390 20 208 28 273 35 315 2 14 6 48 9 75 3 28 10 75 15 105 5 30 12 78 16 105
3 28 8 59 10 70 2 11 11 61 19 110 14 80 56 298 71 365 3 14 8 39 11 55 33
187 166 740 278 1155 60 224 170 573 267 845 57 160 177 476 198 520 18 39
360 894 390 976 17 46 37 98 44 114 32 71 160 467 192 595 43 172 58 238 83
360 27 132 33 167 47 280 2 19 6 49 9 65 2 17 7 55 10 85 4 30 10 84 14 120 8
63 6 355 -2 395 -3 11 -8 47 -11 80 -4 33 -9 67 -11 75 -2 8 -6 33 -10 54 -27
183 -136 451 -250 611 -132 186 -354 369 -560 462 -117 53 -137 60 -225 87
-129 39 -244 64 -330 71 -112 11 -585 25 -593 19z"/>
<path d="M3668 11785 c-2 -1 -46 -5 -98 -8 -101 -6 -120 -9 -215 -33 -329 -81
-631 -298 -818 -589 -178 -278 -279 -562 -332 -941 -37 -262 -39 -606 -5 -854
5 -36 12 -87 15 -115 19 -149 89 -443 151 -639 148 -462 294 -768 729 -1531
56 -99 113 -200 127 -225 14 -25 35 -63 48 -85 51 -89 260 -467 310 -560 129
-238 158 -295 293 -565 187 -374 251 -515 361 -793 80 -200 122 -319 186 -527
66 -212 111 -392 150 -595 6 -27 12 -61 15 -75 3 -14 8 -41 11 -60 3 -19 9
-60 14 -90 5 -30 12 -69 15 -86 2 -17 7 -46 9 -65 3 -19 10 -67 15 -107 6 -40
13 -94 16 -120 3 -26 10 -74 15 -107 5 -33 12 -80 15 -104 3 -23 7 -55 9 -70
3 -14 7 -53 11 -86 3 -33 8 -67 10 -75 2 -8 6 -45 10 -82 3 -37 8 -77 10 -90
2 -13 13 -95 25 -183 11 -88 23 -171 25 -185 2 -14 14 -90 25 -170 12 -80 23
-152 25 -160 3 -8 7 -33 10 -55 40 -263 134 -605 231 -835 155 -371 344 -598
602 -724 135 -66 260 -96 415 -100 295 -6 576 113 802 340 380 383 678 1109
820 1999 9 55 18 111 20 125 7 39 15 92 19 125 3 17 14 95 26 175 28 190 31
210 35 245 3 17 9 62 15 100 6 39 12 84 15 100 89 656 254 1059 509 1239 130
93 224 125 376 130 102 4 202 -19 309 -69 76 -36 193 -110 246 -155 39 -33
126 -111 145 -130 106 -103 109 -91 10 34 -294 370 -586 518 -910 461 -411
-72 -708 -397 -906 -994 -36 -107 -153 -538 -169 -621 -2 -9 -10 -45 -19 -81
-33 -136 -117 -495 -122 -519 -2 -14 -11 -47 -19 -75 -8 -27 -33 -117 -55
-200 -174 -634 -420 -1149 -676 -1410 -136 -139 -259 -204 -396 -211 -112 -4
-178 20 -262 97 -116 106 -206 284 -276 545 -12 43 -23 86 -25 94 -12 56 -36
175 -41 207 -3 21 -7 45 -9 53 -2 8 -7 38 -10 65 -3 28 -8 59 -10 71 -3 11 -7
43 -10 70 -3 27 -8 60 -10 74 -2 14 -7 52 -10 85 -3 33 -8 71 -10 85 -6 41
-20 173 -30 285 -3 33 -8 76 -10 95 -2 19 -7 67 -10 105 -3 39 -8 86 -10 105
-2 19 -7 61 -10 93 -13 142 -15 167 -25 257 -6 52 -13 118 -15 145 -6 57 -15
134 -21 185 -3 19 -7 53 -9 75 -3 22 -8 58 -10 80 -17 129 -69 431 -96 550
-11 50 -22 101 -25 115 -3 14 -12 48 -19 75 -8 28 -23 82 -34 120 -106 391
-295 894 -495 1317 -55 118 -315 639 -326 653 -4 6 -33 60 -65 120 -65 125
-186 342 -221 397 -13 21 -24 40 -24 42 0 3 -59 107 -132 233 -72 125 -139
242 -148 258 -10 17 -49 84 -87 150 -63 109 -101 177 -220 391 -130 232 -258
508 -333 716 -23 62 -45 123 -50 136 -9 20 -75 239 -85 282 -25 102 -49 232
-70 387 -30 217 -23 557 15 763 29 158 29 159 62 255 106 314 290 511 543 581
83 23 287 27 390 8 293 -54 630 -214 1010 -479 90 -63 407 -297 445 -328 8 -7
116 -88 240 -180 124 -93 232 -174 241 -180 36 -27 82 -59 224 -154 463 -310
790 -452 1265 -553 96 -21 192 -37 265 -46 22 -3 54 -7 70 -9 231 -31 739 -28
980 6 39 5 84 12 102 14 18 2 58 9 90 15 32 5 72 13 88 16 78 13 291 69 385
101 189 63 319 120 500 220 116 65 337 219 327 230 -2 2 -37 -14 -78 -36 -260
-139 -547 -236 -859 -290 -227 -39 -316 -46 -625 -46 -232 0 -395 7 -462 19
-10 2 -45 7 -78 10 -33 4 -67 9 -75 11 -8 2 -33 6 -55 10 -104 14 -312 61
-433 96 -406 119 -744 293 -1087 562 -88 69 -364 297 -396 327 -8 8 -31 28
-50 45 -196 171 -290 253 -319 279 -194 173 -520 431 -686 542 -78 52 -144 94
-147 94 -3 0 -30 14 -59 31 -73 44 -331 173 -398 199 -170 69 -354 110 -559
126 -42 3 -88 7 -103 9 -15 1 -29 1 -30 0z"/>
</g>
</svg>
